<svg width="237" height="295" viewBox="0 0 237 295" fill="none" xmlns="http://www.w3.org/2000/svg">
<path d="M204.706 85.9875C204.706 131.82 166.003 168.975 118.26 168.975C70.518 168.975 31.8151 131.82 31.8151 85.9875C31.8151 40.1548 70.518 3 118.26 3C166.003 3 204.706 40.1548 204.706 85.9875Z" fill="#DFDFDF"/>
<path d="M118.26 168.975C166.003 168.975 204.706 131.82 204.706 85.9875C204.706 40.1548 166.003 3 118.26 3C70.518 3 31.8151 40.1548 31.8151 85.9875C31.8151 131.82 70.518 168.975 118.26 168.975ZM118.26 168.975C3 168.975 3 218.515 3 279.625M118.26 168.975C233.521 171.38 233.521 218.515 233.521 279.625" stroke="#DFDFDF" stroke-width="5" stroke-linecap="round"/>
<path d="M1 257.154L7.5 229.5L9 223.5L11.5 217.5L15.5 207.5L24.5 190.923L71.5 172L111 170.5L149.833 172L189 181.462L209.5 192.5L221 209L227 222L236 257.154V295H1V257.154Z" fill="#DFDFDF"/>
</svg>
