<svg width="24" height="18" viewBox="0 0 24 18" fill="none" xmlns="http://www.w3.org/2000/svg">
<path d="M1.03694 6.33333C1 7.03361 1 7.89367 1 9C1 11.485 1 12.7275 1.41866 13.7076C1.97688 15.0145 3.04759 16.0527 4.39524 16.594C5.40598 17 6.68732 17 9.25 17H14.75C17.3127 17 18.594 17 19.6048 16.594C20.9524 16.0527 22.0231 15.0145 22.5813 13.7076C23 12.7275 23 11.485 23 9C23 7.89367 23 7.03361 22.9631 6.33333M1.03694 6.33333C1.08298 5.46066 1.18639 4.83612 1.41866 4.29236C1.97688 2.98554 3.04759 1.94728 4.39524 1.40598C5.40598 1 6.68732 1 9.25 1H14.75C17.3127 1 18.594 1 19.6048 1.40598C20.9524 1.94728 22.0231 2.98554 22.5813 4.29236C22.8136 4.83612 22.917 5.46066 22.9631 6.33333M1.03694 6.33333H22.9631M17.5 9.88889H19.3333" stroke="#1A1A1A" stroke-width="1.5" stroke-linecap="round"/>
</svg>
