<svg width="25" height="25" viewBox="0 0 25 25" fill="none" xmlns="http://www.w3.org/2000/svg">
<path d="M8.33335 22.9167C8.90865 22.9167 9.37502 22.4503 9.37502 21.875C9.37502 21.2997 8.90865 20.8333 8.33335 20.8333C7.75806 20.8333 7.29169 21.2997 7.29169 21.875C7.29169 22.4503 7.75806 22.9167 8.33335 22.9167Z" stroke="#333333" stroke-width="1.5" stroke-linecap="round" stroke-linejoin="round"/>
<path d="M19.7917 22.9167C20.367 22.9167 20.8333 22.4503 20.8333 21.875C20.8333 21.2997 20.367 20.8333 19.7917 20.8333C19.2164 20.8333 18.75 21.2997 18.75 21.875C18.75 22.4503 19.2164 22.9167 19.7917 22.9167Z" stroke="#333333" stroke-width="1.5" stroke-linecap="round" stroke-linejoin="round"/>
<path d="M2.13544 2.13541H4.21877L6.9896 15.0729C7.09125 15.5467 7.35489 15.9703 7.73514 16.2707C8.11539 16.5711 8.58846 16.7295 9.07294 16.7187H19.2604C19.7346 16.718 20.1943 16.5555 20.5636 16.2582C20.9329 15.9608 21.1897 15.5464 21.2917 15.0833L23.0104 7.34374H5.33335" stroke="#333333" stroke-width="1.5" stroke-linecap="round" stroke-linejoin="round"/>
</svg>
