<svg width="13" height="11" viewBox="0 0 13 11" fill="none" xmlns="http://www.w3.org/2000/svg">
<path opacity="0.7" d="M12.7461 4.09961C12.1367 4.58203 10.8164 5.54688 8.83594 6.96875L8.58203 7.17188C8.17578 7.47656 7.87109 7.70508 7.61719 7.83203C7.21094 8.08594 6.83008 8.1875 6.5 8.1875C6.14453 8.1875 5.78906 8.08594 5.38281 7.85742C5.12891 7.73047 4.82422 7.50195 4.41797 7.19727L4.16406 6.96875C2.10742 5.49609 0.8125 4.53125 0.253906 4.09961C0.203125 4.07422 0.126953 4.07422 0.0761719 4.09961C0.0253906 4.125 0 4.17578 0 4.22656V9.40625C0 9.76172 0.101562 10.041 0.355469 10.2695C0.583984 10.5234 0.863281 10.625 1.21875 10.625H11.7812C12.1113 10.625 12.3906 10.5234 12.6445 10.2695C12.873 10.041 13 9.76172 13 9.40625V4.22656C13 4.17578 12.9492 4.125 12.8984 4.07422C12.8477 4.04883 12.7969 4.04883 12.7461 4.09961ZM6.5 7.375C6.27148 7.375 5.99219 7.27344 5.6875 7.07031C5.48438 6.96875 5.23047 6.79102 4.90039 6.51172L4.64648 6.33398C2.56445 4.81055 1.14258 3.76953 0.40625 3.18555L0.228516 3.05859C0.0761719 2.95703 0 2.7793 0 2.57617V2.09375C0 1.76367 0.101562 1.48438 0.355469 1.23047C0.583984 1.00195 0.863281 0.875 1.21875 0.875H11.7812C12.1113 0.875 12.3906 1.00195 12.6445 1.23047C12.873 1.48438 13 1.76367 13 2.09375V2.57617C13 2.7793 12.9238 2.95703 12.7715 3.05859L12.6445 3.16016C11.9082 3.74414 10.4863 4.81055 8.35352 6.33398L8.09961 6.51172C7.74414 6.79102 7.49023 6.96875 7.3125 7.07031C6.98242 7.27344 6.70312 7.375 6.5 7.375Z" fill="white"/>
</svg>
