<svg width="10" height="14" viewBox="0 0 10 14" fill="none" xmlns="http://www.w3.org/2000/svg">
<path opacity="0.7" d="M4.36719 12.9961C4.46875 13.1738 4.64648 13.25 4.875 13.25C5.07812 13.25 5.25586 13.1738 5.38281 12.9961L7.08398 10.5586C7.92188 9.33984 8.48047 8.52734 8.75977 8.0957C9.14062 7.48633 9.39453 6.97852 9.54688 6.57227C9.67383 6.16602 9.75 5.68359 9.75 5.125C9.75 4.26172 9.52148 3.44922 9.08984 2.6875C8.63281 1.95117 8.04883 1.36719 7.3125 0.910156C6.55078 0.478516 5.73828 0.25 4.875 0.25C3.98633 0.25 3.17383 0.478516 2.4375 0.910156C1.67578 1.36719 1.0918 1.95117 0.660156 2.6875C0.203125 3.44922 0 4.26172 0 5.125C0 5.68359 0.0507812 6.16602 0.203125 6.57227C0.330078 6.97852 0.583984 7.48633 0.990234 8.0957C1.24414 8.52734 1.80273 9.33984 2.66602 10.5586C3.35156 11.5488 3.91016 12.3613 4.36719 12.9961ZM4.875 7.15625C4.31641 7.15625 3.83398 6.97852 3.42773 6.57227C3.02148 6.16602 2.84375 5.68359 2.84375 5.125C2.84375 4.56641 3.02148 4.10938 3.42773 3.70312C3.83398 3.29688 4.31641 3.09375 4.875 3.09375C5.43359 3.09375 5.89062 3.29688 6.29688 3.70312C6.70312 4.10938 6.90625 4.56641 6.90625 5.125C6.90625 5.68359 6.70312 6.16602 6.29688 6.57227C5.89062 6.97852 5.43359 7.15625 4.875 7.15625Z" fill="white"/>
</svg>
