<svg width="9" height="15" viewBox="0 0 9 15" fill="none" xmlns="http://www.w3.org/2000/svg">
<path d="M7.51953 9.50781C8.01172 9.17969 8.3125 8.93359 8.44922 8.74219C8.61328 8.52344 8.61328 8.22266 8.47656 7.89453C8.33984 7.67578 8.14844 7.51172 7.92969 7.45703C7.60156 7.40234 7.30078 7.48438 6.97266 7.73047L6.64453 7.94922C6.37109 8.11328 6.07031 8.22266 5.76953 8.33203C5.30469 8.46875 4.83984 8.52344 4.375 8.52344C3.88281 8.52344 3.41797 8.46875 2.98047 8.33203C2.65234 8.22266 2.37891 8.11328 2.10547 7.94922L1.77734 7.73047C1.44922 7.48438 1.12109 7.40234 0.847656 7.45703C0.574219 7.51172 0.410156 7.67578 0.300781 7.89453C0.136719 8.22266 0.136719 8.52344 0.300781 8.74219C0.410156 8.93359 0.738281 9.17969 1.23047 9.50781C1.80469 9.89062 2.625 10.1367 3.71875 10.2461L1.06641 12.8984C0.792969 13.1445 0.738281 13.418 0.847656 13.7188C0.957031 14.0195 1.14844 14.2109 1.47656 14.3203C1.77734 14.4297 2.05078 14.375 2.29688 14.1289L4.375 12.0508L6.48047 14.1562C6.69922 14.4023 6.97266 14.457 7.27344 14.3477C7.57422 14.2383 7.79297 14.0195 7.90234 13.7188C8.01172 13.418 7.92969 13.1445 7.71094 12.8984L5.05859 10.2461C6.09766 10.1367 6.91797 9.89062 7.51953 9.50781ZM0.820312 3.92969C0.820312 4.58594 0.957031 5.16016 1.28516 5.70703C1.61328 6.25391 2.05078 6.66406 2.59766 6.99219C3.14453 7.32031 3.71875 7.45703 4.375 7.45703C5.00391 7.45703 5.60547 7.32031 6.15234 6.99219C6.69922 6.66406 7.10938 6.25391 7.4375 5.70703C7.76562 5.16016 7.92969 4.58594 7.92969 3.92969C7.92969 3.27344 7.76562 2.69922 7.4375 2.15234C7.10938 1.60547 6.69922 1.19531 6.15234 0.867188C5.60547 0.539062 5.00391 0.375 4.375 0.375C3.71875 0.375 3.14453 0.539062 2.59766 0.867188C2.05078 1.19531 1.61328 1.60547 1.28516 2.15234C0.957031 2.69922 0.820312 3.27344 0.820312 3.92969ZM2.625 3.92969C2.625 3.4375 2.78906 3.02734 3.14453 2.69922C3.47266 2.37109 3.88281 2.17969 4.375 2.17969C4.83984 2.17969 5.25 2.37109 5.60547 2.69922C5.93359 3.02734 6.125 3.4375 6.125 3.92969C6.125 4.42188 5.93359 4.83203 5.60547 5.16016C5.25 5.48828 4.83984 5.65234 4.375 5.65234C3.88281 5.65234 3.47266 5.48828 3.14453 5.16016C2.78906 4.83203 2.625 4.42188 2.625 3.92969Z" fill="white"/>
</svg>
