<svg width="11" height="12" viewBox="0 0 11 12" fill="none" xmlns="http://www.w3.org/2000/svg">
<path opacity="0.7" d="M11 9.3125C11 9.25781 11 9.20312 10.9766 9.14844C10.9219 8.98437 10.5391 8.8125 10.3828 8.73437C9.9375 8.48437 9.48438 8.24219 9.04688 7.98437C8.84375 7.85937 8.59375 7.625 8.35156 7.625C7.875 7.625 7.17969 9.03906 6.75781 9.03906C6.54688 9.03906 6.27344 8.84375 6.08594 8.73437C4.66406 7.94531 3.67969 6.96094 2.89063 5.53906C2.78125 5.35156 2.58594 5.07812 2.58594 4.86719C2.58594 4.44531 4 3.75 4 3.27344C4 3.03125 3.76563 2.78125 3.64063 2.57812C3.38281 2.14062 3.14063 1.6875 2.89063 1.24219C2.8125 1.08594 2.64063 0.703125 2.47656 0.648437C2.42188 0.624999 2.36719 0.624999 2.3125 0.624999C2.03125 0.624999 1.48438 0.75 1.22656 0.867187C0.84375 1.03125 0.59375 1.46875 0.398438 1.82031C0.148438 2.28125 0 2.75 0 3.27344C0 4 0.296875 4.65625 0.539063 5.32031C0.710938 5.79687 0.921875 6.25781 1.1875 6.6875C2.00781 8.01562 3.60938 9.61719 4.9375 10.4375C5.36719 10.7031 5.82813 10.9141 6.30469 11.0859C6.96875 11.3281 7.625 11.625 8.35156 11.625C8.875 11.625 9.34375 11.4766 9.80469 11.2266C10.1563 11.0312 10.5938 10.7812 10.7578 10.3984C10.875 10.1406 11 9.59375 11 9.3125Z" fill="white"/>
</svg>
