<svg width="18" height="22" viewBox="0 0 18 22" fill="none" xmlns="http://www.w3.org/2000/svg">
<path d="M5.95054 12.4087C6.19351 11.9975 6.33333 11.5155 6.33333 11C6.33333 10.4845 6.19351 10.0025 5.95054 9.59133M5.95054 12.4087C5.48352 13.199 4.63542 13.7273 3.66667 13.7273C2.19391 13.7273 1 12.5062 1 11C1 9.49377 2.19391 8.27273 3.66667 8.27273C4.63542 8.27273 5.48352 8.80104 5.95054 9.59133M5.95054 12.4087L12.0495 16.8641M5.95054 9.59133L12.0495 5.13595M12.0495 5.13595C12.5165 5.92623 13.3646 6.45455 14.3333 6.45455C15.8061 6.45455 17 5.2335 17 3.72727C17 2.22104 15.8061 1 14.3333 1C12.8606 1 11.6667 2.22104 11.6667 3.72727C11.6667 4.24273 11.8065 4.72479 12.0495 5.13595ZM12.0495 16.8641C11.8065 17.2752 11.6667 17.7573 11.6667 18.2727C11.6667 19.779 12.8606 21 14.3333 21C15.8061 21 17 19.779 17 18.2727C17 16.7665 15.8061 15.5455 14.3333 15.5455C13.3646 15.5455 12.5165 16.0738 12.0495 16.8641Z" stroke="#F97316" stroke-width="1.5" stroke-linecap="round" stroke-linejoin="round"/>
</svg>
