<svg width="16" height="15" viewBox="0 0 16 15" fill="none" xmlns="http://www.w3.org/2000/svg">
<path d="M7.87891 5.26677L10.1693 7.55716L10.1802 7.43718C10.1802 6.23381 9.20225 5.25586 7.99888 5.25586L7.87891 5.26677Z" fill="#121212"/>
<path d="M7.99904 3.80018C10.0059 3.80018 11.6346 5.42891 11.6346 7.43573C11.6346 7.90471 11.5401 8.35188 11.3765 8.76269L13.5033 10.8895C14.6012 9.97332 15.4665 8.78815 16.0009 7.43573C14.7394 4.24374 11.6382 1.98242 7.99908 1.98242C6.98111 1.98242 6.00681 2.16419 5.10156 2.49139L6.67212 4.05829C7.08289 3.89834 7.53006 3.80018 7.99904 3.80018Z" fill="#121212"/>
<path d="M0.727096 1.81964L2.3849 3.47745L2.71575 3.80829C1.51602 4.74626 0.567144 5.99326 0 7.43655C1.25791 10.6285 4.36264 12.8899 7.99819 12.8899C9.12522 12.8899 10.2013 12.6717 11.1866 12.2754L11.4956 12.5845L13.6151 14.7076L14.5422 13.7842L1.65416 0.892578L0.727096 1.81964ZM4.74802 5.83692L5.8714 6.9603C5.83868 7.11664 5.81687 7.27295 5.81687 7.43655C5.81687 8.63992 6.79482 9.61787 7.99819 9.61787C8.16179 9.61787 8.31813 9.59606 8.47082 9.56334L9.5942 10.6867C9.11067 10.9267 8.57263 11.0721 7.99819 11.0721C5.99138 11.0721 4.36264 9.44336 4.36264 7.43655C4.36264 6.86214 4.50808 6.32407 4.74802 5.83692Z" fill="#121212"/>
</svg>
