<svg width="13" height="14" viewBox="0 0 13 14" fill="none" xmlns="http://www.w3.org/2000/svg">
<path opacity="0.7" d="M6.5 0.453125C7.61719 0.453125 8.68359 0.757812 9.64844 1.31641C10.6133 1.875 11.375 2.63672 11.9336 3.60156C12.4922 4.56641 12.7969 5.63281 12.7969 6.75C12.7969 7.89258 12.4922 8.93359 11.9336 9.89844C11.375 10.8633 10.6133 11.6504 9.64844 12.209C8.68359 12.7676 7.61719 13.0469 6.5 13.0469C5.35742 13.0469 4.31641 12.7676 3.35156 12.209C2.38672 11.6504 1.59961 10.8633 1.04102 9.89844C0.482422 8.93359 0.203125 7.89258 0.203125 6.75C0.203125 5.63281 0.482422 4.56641 1.04102 3.60156C1.59961 2.63672 2.38672 1.875 3.35156 1.31641C4.31641 0.757812 5.35742 0.453125 6.5 0.453125ZM7.94727 9.33984C7.99805 9.39062 8.07422 9.41602 8.17578 9.39062C8.25195 9.39062 8.32812 9.33984 8.37891 9.26367L9.08984 8.29883C9.14062 8.24805 9.14062 8.17188 9.14062 8.07031C9.14062 7.99414 9.08984 7.91797 9.03906 7.86719L7.41406 6.69922V3.19531C7.41406 3.11914 7.36328 3.04297 7.3125 2.99219C7.26172 2.94141 7.18555 2.89062 7.10938 2.89062H5.89062C5.78906 2.89062 5.71289 2.94141 5.66211 2.99219C5.61133 3.04297 5.58594 3.11914 5.58594 3.19531V7.46094C5.58594 7.5625 5.61133 7.66406 5.71289 7.71484L7.94727 9.33984Z" fill="white"/>
</svg>
