<svg width="70" height="71" viewBox="0 0 70 71" fill="none" xmlns="http://www.w3.org/2000/svg">
<path d="M47.679 59.3347H40.9827V53.186L50.901 46.9153L40.9827 40.6447V33.3669H47.679V24.3347H40.9827V16.4315H49.9111V0.625H29.8221V16.4315H38.7506V24.3347H32.0542V27.7218H22.0098V29.9798H32.0542V33.3669H38.7506V40.6447L28.8322 46.9153L38.7506 53.186V59.3347H32.0542C30.2083 59.3347 28.7061 60.8544 28.7061 62.7218V67.2379C28.7061 69.1053 30.2083 70.625 32.0542 70.625H47.679C49.525 70.625 51.0272 69.1053 51.0272 67.2379V62.7218C51.0272 60.8544 49.525 59.3347 47.679 59.3347ZM32.0542 2.88306H47.679V14.1734H32.0542V2.88306ZM34.2864 26.5927H45.4469V31.1089H34.2864V26.5927ZM39.8666 42.6013L46.6891 46.9153L39.8666 51.2294L33.0442 46.9153L39.8666 42.6013ZM48.7951 67.2379C48.7951 67.86 48.2939 68.3669 47.679 68.3669H32.0542C31.4393 68.3669 30.9382 67.86 30.9382 67.2379V62.7218C30.9382 62.0997 31.4393 61.5927 32.0542 61.5927H47.679C48.2939 61.5927 48.7951 62.0997 48.7951 62.7218V67.2379Z" fill="#1A1A1A"/>
<path d="M20.1044 61.2619L22.6635 63.8508H12.8757C12.5387 62.8945 11.7943 62.1414 10.849 61.8005V37.8831H8.61687V61.8005C7.32113 62.2679 6.38477 63.5098 6.38477 64.9798C6.38477 66.8472 7.88697 68.3669 9.73293 68.3669C11.186 68.3669 12.4137 67.4197 12.8757 66.1089H22.6635L20.1044 68.6977L21.6825 70.2942L26.9358 64.9798L21.6825 59.6655L20.1044 61.2619ZM9.73293 66.1089C9.11798 66.1089 8.61687 65.6019 8.61687 64.9798C8.61687 64.3577 9.11798 63.8508 9.73293 63.8508C10.3479 63.8508 10.849 64.3577 10.849 64.9798C10.849 65.6019 10.3479 66.1089 9.73293 66.1089Z" fill="#1A1A1A"/>
<path d="M67.7684 43.736V11.7076C69.0642 11.2401 70.0005 9.99821 70.0005 8.52821C70.0005 6.66079 68.4983 5.14111 66.6524 5.14111C65.1993 5.14111 63.9716 6.08837 63.5096 7.39918H52.1437V9.65724H63.5096C63.8466 10.6135 64.591 11.3666 65.5363 11.7076V43.7371C64.591 44.078 63.8466 44.8311 63.5096 45.7874H55.9539L58.513 43.1985L56.9349 41.6021L51.6816 46.9153L56.9349 52.2297L58.513 50.6332L55.9539 48.0443H63.5096C63.9716 49.3551 65.1993 50.3024 66.6524 50.3024C68.4983 50.3024 70.0005 48.7827 70.0005 46.9153C70.0005 45.4453 69.0642 44.2034 67.7684 43.736ZM66.6524 7.39918C67.2673 7.39918 67.7684 7.90611 67.7684 8.52821C67.7684 9.15031 67.2673 9.65724 66.6524 9.65724C66.0374 9.65724 65.5363 9.15031 65.5363 8.52821C65.5363 7.90611 66.0374 7.39918 66.6524 7.39918ZM66.6524 48.0443C66.0374 48.0443 65.5363 47.5374 65.5363 46.9153C65.5363 46.2932 66.0374 45.7863 66.6524 45.7863C67.2673 45.7863 67.7684 46.2932 67.7684 46.9153C67.7684 47.5374 67.2673 48.0443 66.6524 48.0443Z" fill="#1A1A1A"/>
<path d="M19.4662 28.8509L9.7331 21.8181L0 28.8509L9.7331 35.8836L19.4662 28.8509ZM9.7331 24.5933L15.6248 28.8509L9.7331 33.1084L3.84146 28.8509L9.7331 24.5933Z" fill="#1A1A1A"/>
<path d="M34.2861 5.14111H45.4467V7.39918H34.2861V5.14111Z" fill="#1A1A1A"/>
<path d="M34.2861 9.65723H40.9825V11.9153H34.2861V9.65723Z" fill="#1A1A1A"/>
<path d="M43.2148 9.65723H45.447V11.9153H43.2148V9.65723Z" fill="#1A1A1A"/>
<path d="M62.1875 63.8508H64.4196V66.1089H62.1875V63.8508Z" fill="#1A1A1A"/>
<path d="M57.7236 63.8508H59.9557V66.1089H57.7236V63.8508Z" fill="#1A1A1A"/>
<path d="M53.2598 63.8508H55.4919V66.1089H53.2598V63.8508Z" fill="#1A1A1A"/>
<path d="M20.8936 9.65723H23.1257V11.9153H20.8936V9.65723Z" fill="#1A1A1A"/>
<path d="M25.3574 9.65723H27.5895V11.9153H25.3574V9.65723Z" fill="#1A1A1A"/>
<path d="M16.4297 9.65723H18.6618V11.9153H16.4297V9.65723Z" fill="#1A1A1A"/>
</svg>
