<svg width="70" height="71" viewBox="0 0 70 71" fill="none" xmlns="http://www.w3.org/2000/svg">
<path d="M54.1018 24.4335C52.1798 21.1676 49.4574 18.4452 46.1915 16.5232C46.1215 16.4758 46.0492 16.4313 45.9751 16.3915C39.1813 12.4808 30.8198 12.4808 24.0266 16.3915C23.9515 16.4313 23.8787 16.4752 23.8085 16.5232C20.5426 18.4452 17.8202 21.1676 15.8982 24.4335C15.8502 24.5029 15.8063 24.5752 15.7665 24.6499C11.8558 31.4443 11.8558 39.8058 15.7665 46.6001C15.8172 46.6997 15.8759 46.7955 15.9415 46.8867C17.8608 50.1216 20.567 52.8186 23.8085 54.7268C23.891 54.7844 23.9776 54.8374 24.067 54.8842C30.8404 58.7607 39.1596 58.7607 45.933 54.8842C46.0224 54.8375 46.109 54.7844 46.1915 54.7268C49.433 52.8186 52.1392 50.1216 54.0585 46.8867C54.1241 46.7958 54.1826 46.7 54.2335 46.6001C58.1442 39.8058 58.1442 31.4443 54.2335 24.6499C54.1932 24.5756 54.1493 24.5034 54.1018 24.4335ZM45.9028 52.1753L44.7606 50.1919C44.659 50.0131 44.5118 49.8644 44.3341 49.7608C44.1564 49.6573 43.9545 49.6026 43.7488 49.6023C43.5432 49.6018 43.3411 49.6556 43.163 49.7584C42.9849 49.8612 42.8371 50.0092 42.7346 50.1875C42.6321 50.3658 42.5786 50.568 42.5794 50.7737C42.5803 50.9793 42.6354 51.1811 42.7394 51.3585L43.877 53.3302C41.4756 54.5404 38.8513 55.2445 36.1667 55.399V53.125C36.1667 52.8156 36.0438 52.5188 35.825 52.3C35.6062 52.0812 35.3094 51.9583 35 51.9583C34.6906 51.9583 34.3938 52.0812 34.175 52.3C33.9562 52.5188 33.8333 52.8156 33.8333 53.125V55.3991C31.1491 55.2459 28.5248 54.5434 26.123 53.3351L27.2605 51.3635C27.4073 51.0959 27.4435 50.7816 27.3613 50.4877C27.2791 50.1938 27.085 49.9438 26.8208 49.7912C26.5565 49.6387 26.2429 49.5957 25.9474 49.6715C25.6518 49.7473 25.3976 49.9359 25.2394 50.1968L24.0972 52.18C21.8542 50.6963 19.9334 48.7754 18.4497 46.5323L20.4331 45.3901C20.612 45.2885 20.7607 45.1414 20.8643 44.9637C20.9678 44.786 21.0225 44.584 21.0228 44.3784C21.0233 44.1727 20.9695 43.9706 20.8666 43.7925C20.7638 43.6144 20.6156 43.4667 20.4372 43.3644C20.259 43.2617 20.0568 43.2081 19.8512 43.209C19.6455 43.2099 19.4438 43.2653 19.2665 43.3695L17.2948 44.5065C16.0838 42.1039 15.3797 39.4779 15.226 36.7917H17.5C17.8094 36.7917 18.1062 36.6688 18.325 36.45C18.5437 36.2312 18.6667 35.9344 18.6667 35.625C18.6667 35.3156 18.5437 35.0188 18.325 34.8C18.1062 34.5812 17.8094 34.4583 17.5 34.4583H15.2259C15.3791 31.7741 16.0816 29.1498 17.2899 26.748L19.2615 27.8855C19.439 27.9894 19.6407 28.0446 19.8463 28.0455C20.052 28.0464 20.2542 27.993 20.4326 27.8907C20.611 27.7883 20.7592 27.6405 20.8621 27.4624C20.9649 27.2842 21.0188 27.0819 21.0182 26.8762C21.0178 26.6705 20.963 26.4685 20.8593 26.2908C20.7557 26.1131 20.6069 25.966 20.428 25.8644L18.445 24.7222C19.9287 22.4792 21.8496 20.5584 24.0927 19.0747L25.2349 21.0581C25.3365 21.237 25.4836 21.3857 25.6613 21.4893C25.839 21.5928 26.041 21.6475 26.2466 21.6478C26.4523 21.6483 26.6544 21.5945 26.8325 21.4916C27.0106 21.3888 27.1583 21.2406 27.2606 21.0622C27.3633 20.884 27.4169 20.6818 27.416 20.4762C27.4151 20.2705 27.3597 20.0688 27.2555 19.8915L26.1185 17.9198C28.5212 16.7088 31.1471 16.0047 33.8333 15.851V18.125C33.8333 18.4344 33.9562 18.7312 34.175 18.95C34.3938 19.1687 34.6906 19.2917 35 19.2917C35.3094 19.2917 35.6062 19.1687 35.825 18.95C36.0438 18.7312 36.1667 18.4344 36.1667 18.125V15.8509C38.8509 16.0041 41.4752 16.7066 43.877 17.9149L42.7395 19.8865C42.6356 20.064 42.5804 20.2657 42.5795 20.4713C42.5786 20.677 42.632 20.8792 42.7343 21.0576C42.8367 21.236 42.9845 21.3842 43.1627 21.4871C43.3408 21.5899 43.5431 21.6438 43.7488 21.6432C43.9545 21.6428 44.1565 21.588 44.3342 21.4843C44.5119 21.3807 44.659 21.2319 44.7606 21.053L45.9028 19.07C48.1458 20.5537 50.0666 22.4746 51.5503 24.7177L49.5669 25.8599C49.388 25.9615 49.2393 26.1086 49.1357 26.2863C49.0322 26.464 48.9775 26.666 48.9773 26.8716C48.9767 27.0773 49.0305 27.2794 49.1334 27.4575C49.2362 27.6356 49.3844 27.7833 49.5628 27.8856C49.741 27.9883 49.9432 28.0419 50.1488 28.041C50.3545 28.0401 50.5562 27.9847 50.7335 27.8805L52.7052 26.7435C53.9162 29.1462 54.6203 31.7721 54.774 34.4583H52.5C52.1906 34.4583 51.8938 34.5812 51.675 34.8C51.4562 35.0188 51.3333 35.3156 51.3333 35.625C51.3333 35.9344 51.4562 36.2312 51.675 36.45C51.8938 36.6688 52.1906 36.7917 52.5 36.7917H54.7741C54.6209 39.4759 53.9184 42.1002 52.7101 44.502L50.7385 43.3645C50.4709 43.2177 50.1566 43.1815 49.8627 43.2637C49.5688 43.3459 49.3188 43.54 49.1662 43.8042C49.0137 44.0685 48.9707 44.3821 49.0465 44.6776C49.1223 44.9732 49.3109 45.2274 49.5718 45.3856L51.555 46.5278C50.0697 48.7711 48.1474 50.6919 45.9028 52.1753Z" fill="#1F1F1F"/>
<path d="M35 21.625C34.6906 21.625 34.3938 21.7479 34.175 21.9667C33.9562 22.1855 33.8333 22.4822 33.8333 22.7917V34.4583H24.5C24.1906 34.4583 23.8938 34.5812 23.675 34.8C23.4562 35.0188 23.3333 35.3156 23.3333 35.625C23.3333 35.9344 23.4562 36.2312 23.675 36.45C23.8938 36.6687 24.1906 36.7917 24.5 36.7917H35C35.3094 36.7917 35.6062 36.6687 35.825 36.45C36.0437 36.2312 36.1667 35.9344 36.1667 35.625V22.7917C36.1667 22.4822 36.0437 22.1855 35.825 21.9667C35.6062 21.7479 35.3094 21.625 35 21.625Z" fill="#1F1F1F"/>
<path d="M68.8333 27.4583H60.5596C60.1056 26.0354 59.533 24.6531 58.8477 23.326L64.6987 17.475C65.154 17.0199 65.154 16.2809 64.6987 15.8252L54.7998 5.92633C54.3441 5.47104 53.6051 5.47104 53.15 5.92633L47.299 11.7772C45.9719 11.092 44.5896 10.5194 43.1667 10.0655V1.79167C43.1667 1.48225 43.0438 1.1855 42.825 0.966709C42.6062 0.747916 42.3094 0.625 42 0.625H28C27.6906 0.625 27.3938 0.747916 27.175 0.966709C26.9562 1.1855 26.8333 1.48225 26.8333 1.79167V10.0654C25.4104 10.5194 24.0281 11.092 22.701 11.7773L16.85 5.92633C16.3874 5.48883 15.6634 5.48883 15.2002 5.92633L5.30133 15.8252C4.84604 16.2809 4.84604 17.0199 5.30133 17.475L11.1522 23.326C10.467 24.6531 9.89444 26.0354 9.44052 27.4583H1.16667C0.857247 27.4583 0.560501 27.5812 0.341709 27.8C0.122916 28.0188 0 28.3156 0 28.625V42.625C0 42.9344 0.122916 43.2312 0.341709 43.45C0.560501 43.6688 0.857247 43.7917 1.16667 43.7917H9.44038C9.89439 45.2146 10.467 46.5969 11.1523 47.924L5.30133 53.775C4.84604 54.2301 4.84604 54.9691 5.30133 55.4248L15.2002 65.3237C15.6559 65.779 16.3949 65.779 16.85 65.3237L22.701 59.4728C24.0281 60.158 25.4104 60.7306 26.8333 61.1845V69.4583C26.8333 69.7678 26.9562 70.0645 27.175 70.2833C27.3938 70.5021 27.6906 70.625 28 70.625H42C42.3094 70.625 42.6062 70.5021 42.825 70.2833C43.0438 70.0645 43.1667 69.7678 43.1667 69.4583V61.1846C44.5896 60.7306 45.9719 60.158 47.299 59.4727L53.15 65.3237C53.6051 65.779 54.3441 65.779 54.7998 65.3237L64.6987 55.4248C65.154 54.9691 65.154 54.2301 64.6987 53.775L58.8478 47.924C59.533 46.5969 60.1056 45.2146 60.5595 43.7917H68.8333C69.1428 43.7917 69.4395 43.6688 69.6583 43.45C69.8771 43.2312 70 42.9344 70 42.625V28.625C70 28.3156 69.8771 28.0188 69.6583 27.8C69.4395 27.5812 69.1428 27.4583 68.8333 27.4583ZM67.6667 41.4583H59.6925C59.4385 41.4584 59.1914 41.5413 58.9888 41.6947C58.7863 41.848 58.6393 42.0632 58.5703 42.3077C58.0515 44.1392 57.3203 45.9039 56.3919 47.5657C56.2664 47.788 56.2173 48.0453 56.2521 48.2982C56.2868 48.5511 56.4036 48.7856 56.5844 48.9658L62.223 54.6055L53.9748 62.8537L48.3352 57.2083C48.1549 57.0275 47.9204 56.9108 47.6675 56.8761C47.4146 56.8413 47.1573 56.8904 46.935 57.0158C45.275 57.9433 43.5122 58.6736 41.6827 59.192C41.4382 59.2609 41.2229 59.4079 41.0696 59.6104C40.9162 59.813 40.8333 60.0601 40.8333 60.3141V68.2917H29.1667V60.3175C29.1666 60.0635 29.0837 59.8164 28.9304 59.6138C28.7771 59.4113 28.5618 59.2643 28.3173 59.1953C26.4858 58.6765 24.7212 57.9454 23.0593 57.017C22.837 56.8916 22.5797 56.8425 22.3268 56.8772C22.0739 56.912 21.8394 57.0287 21.6592 57.2095L16.0195 62.848L7.77131 54.5998L13.4167 48.9602C13.5975 48.7799 13.7142 48.5454 13.7489 48.2925C13.7837 48.0396 13.7346 47.7823 13.6092 47.56C12.6817 45.9 11.9514 44.1372 11.433 42.3077C11.3639 42.0626 11.2164 41.847 11.0132 41.6936C10.81 41.5402 10.5621 41.4576 10.3075 41.4583H2.33333V29.7917H10.3075C10.5615 29.7916 10.8086 29.7087 11.0111 29.5554C11.2137 29.4021 11.3607 29.1868 11.4297 28.9423C11.9486 27.1108 12.6797 25.3461 13.6081 23.6843C13.7336 23.462 13.7827 23.2047 13.7479 22.9518C13.7132 22.6989 13.5964 22.4644 13.4156 22.2842L7.777 16.6502L16.0252 8.40083L21.6649 14.0417C21.8451 14.2225 22.0796 14.3392 22.3325 14.3739C22.5854 14.4087 22.8427 14.3596 23.065 14.2342C24.725 13.3067 26.4878 12.5764 28.3173 12.058C28.5624 11.9889 28.778 11.8414 28.9314 11.6382C29.0848 11.435 29.1674 11.1871 29.1667 10.9325V2.95833H40.8333V10.9325C40.8334 11.1865 40.9163 11.4336 41.0697 11.6361C41.223 11.8387 41.4382 11.9857 41.6827 12.0547C43.5142 12.5736 45.2789 13.3047 46.9407 14.2331C47.163 14.3586 47.4203 14.4077 47.6732 14.3729C47.9261 14.3382 48.1606 14.2214 48.3408 14.0406L53.9805 8.40083L62.2287 16.6502L56.5833 22.2899C56.4025 22.4701 56.2858 22.7046 56.2511 22.9575C56.2163 23.2104 56.2654 23.4677 56.3908 23.69C57.3183 25.35 58.0486 27.1128 58.567 28.9423C58.6359 29.1868 58.7829 29.4021 58.9854 29.5554C59.188 29.7088 59.4351 29.7917 59.6891 29.7917H67.6667V41.4583Z" fill="#1F1F1F"/>
</svg>
