<svg width="70" height="71" viewBox="0 0 70 71" fill="none" xmlns="http://www.w3.org/2000/svg">
<path d="M5.46875 38.4888V68.4375H7.65625V45.4688H29.5312V68.4375H31.7188V38.5904C32.7319 37.879 33.5589 36.9342 34.13 35.8358C34.7011 34.7374 34.9995 33.5178 35 32.2798V23.5938C34.9984 22.1439 34.4217 20.7538 33.3964 19.7286C32.3712 18.7033 30.9811 18.1266 29.5312 18.125H24.0625C24.0625 17.8349 23.9473 17.5567 23.7421 17.3516L23.1542 16.7636C23.7475 15.8706 24.0635 14.8221 24.0625 13.75V8.95723L24.5245 8.72625C25.1534 8.41175 25.6578 7.89409 25.9558 7.25715C26.2538 6.62021 26.3281 5.90131 26.1665 5.21691C26.0049 4.53251 25.617 3.92271 25.0656 3.48632C24.5141 3.04992 23.8315 2.81249 23.1283 2.8125H18.5938C17.1439 2.81415 15.7538 3.39085 14.7286 4.41608C13.7033 5.44131 13.1266 6.83135 13.125 8.28125V18.125H7.65625C6.20635 18.1266 4.81631 18.7033 3.79108 19.7286C2.76585 20.7538 2.18915 22.1439 2.1875 23.5938V32.0703C2.18786 33.3234 2.48546 34.5586 3.05586 35.6744C3.62626 36.7901 4.45319 37.7547 5.46875 38.4888ZM29.5312 43.2812H7.65625V39.6071C9.42845 40.187 11.3484 40.1233 13.0782 39.4273C14.8081 38.7313 16.2371 37.4476 17.1139 35.8019L17.6145 34.8634L22.7924 38.5619C23.7559 39.2502 24.8648 39.7076 26.0333 39.8988C27.2019 40.0899 28.3987 40.0097 29.5312 39.6642V43.2812ZM32.8125 32.2798C32.8125 33.2964 32.5324 34.2933 32.003 35.1611C31.4736 36.029 30.7154 36.7342 29.8115 37.1993C28.9076 37.6645 27.893 37.8716 26.8791 37.798C25.8652 37.7243 24.8912 37.3728 24.064 36.7819L18.6527 32.9168L20.4766 29.497L26.9129 32.2554C27.0793 32.3266 27.2607 32.3555 27.441 32.3394C27.6213 32.3233 27.7947 32.2627 27.9458 32.1631C28.0969 32.0635 28.221 31.9279 28.3068 31.7685C28.3926 31.6092 28.4375 31.431 28.4375 31.25V29.0625H32.8125V32.2798ZM29.5312 20.3125C30.4012 20.3135 31.2352 20.6595 31.8504 21.2746C32.4655 21.8898 32.8115 22.7238 32.8125 23.5938V26.875H28.4375V24.6875H26.25V29.5914L21.5098 27.5597L23.9338 23.0147C24.0183 22.8563 24.0625 22.6795 24.0625 22.5V20.3125H29.5312ZM18.5938 5H23.1283C23.3387 5 23.543 5.07105 23.708 5.20164C23.8731 5.33223 23.9891 5.51472 24.0375 5.71953C24.0859 5.92434 24.0636 6.13948 23.9745 6.33009C23.8853 6.5207 23.7344 6.67561 23.5461 6.76973L22.7106 7.1875H17.5C17.2099 7.1875 16.9317 7.30271 16.7266 7.5078L15.3125 8.92191V8.28125C15.3135 7.41131 15.6595 6.57728 16.2746 5.96214C16.8898 5.347 17.7238 5.00098 18.5938 5ZM15.3125 12.0155L17.953 9.375H21.875V13.75C21.875 14.6202 21.5293 15.4548 20.9139 16.0702C20.2986 16.6855 19.464 17.0312 18.5938 17.0312C17.7235 17.0312 16.8889 16.6855 16.2736 16.0702C15.6582 15.4548 15.3125 14.6202 15.3125 13.75V12.0155ZM16.4062 21.1102C16.0741 20.9185 15.7982 20.6429 15.6062 20.3109C15.4143 19.9789 15.313 19.6022 15.3125 19.2188V18.122C15.6511 18.3765 16.0182 18.5909 16.4062 18.7607V21.1102ZM7.65625 20.3125H13.2634C13.4196 20.9112 13.7005 21.4702 14.0876 21.9528C14.4748 22.4354 14.9596 22.8308 15.5102 23.1131L10.9375 28.339V24.6875H8.75V27.9688H4.375V23.5938C4.376 22.7238 4.72202 21.8898 5.33715 21.2747C5.95229 20.6595 6.78631 20.3135 7.65625 20.3125ZM4.375 30.1562H8.75V31.25C8.74999 31.4725 8.81786 31.6898 8.94455 31.8727C9.07125 32.0557 9.25073 32.1956 9.45904 32.2739C9.66736 32.3521 9.89459 32.365 10.1104 32.3107C10.3262 32.2565 10.5203 32.1377 10.6669 31.9702L18.3231 23.2202C18.4976 23.0208 18.5938 22.7649 18.5938 22.5V19.2188C19.6659 19.2198 20.7144 18.9037 21.6073 18.3104L21.875 18.578V22.2266L15.1839 34.7725C14.5812 35.9025 13.6182 36.7985 12.4478 37.3183C11.2774 37.838 9.96689 37.9516 8.72452 37.6411C7.48216 37.3305 6.37927 36.6135 5.59118 35.6041C4.80308 34.5948 4.375 33.3509 4.375 32.0703V30.1562Z" fill="#1A1A1A"/>
<path d="M19.7005 68.6038L21.8625 68.2711L19.675 54.0523C19.6363 53.801 19.5113 53.571 19.3214 53.4019C19.1315 53.2328 18.8886 53.1352 18.6345 53.1258C18.3804 53.1163 18.131 53.1957 17.9291 53.3503C17.7272 53.5049 17.5855 53.725 17.5283 53.9728L14.2471 68.1915L16.3785 68.6834L18.3791 60.0144L19.7005 68.6038Z" fill="#1A1A1A"/>
<path d="M62.9504 9.55865L56.3879 5.18365C56.2083 5.0639 55.9972 5 55.7812 5C55.5653 5 55.3542 5.0639 55.1746 5.18365L48.6121 9.55865C48.4622 9.65852 48.3394 9.79384 48.2544 9.95259C48.1695 10.1113 48.125 10.2886 48.125 10.4687V18.1249C48.125 18.305 48.1695 18.4823 48.2544 18.641C48.3394 18.7998 48.4622 18.9351 48.6121 19.035L55.1746 23.41C55.3542 23.5298 55.5653 23.5937 55.7812 23.5937C55.9972 23.5937 56.2083 23.5298 56.3879 23.41L62.9504 19.035C63.1003 18.9351 63.2231 18.7998 63.3081 18.641C63.393 18.4823 63.4375 18.305 63.4375 18.1249V10.4687C63.4375 10.2886 63.393 10.1113 63.3081 9.95259C63.2231 9.79384 63.1003 9.65852 62.9504 9.55865ZM55.7812 7.40827L60.372 10.4687L55.7812 13.5291L51.1905 10.4687L55.7812 7.40827ZM50.3125 12.5124L54.6875 15.429V20.4562L50.3125 17.5396V12.5124ZM56.875 20.4562V15.429L61.25 12.5124V17.5396L56.875 20.4562Z" fill="#1A1A1A"/>
<path d="M49.2188 25.7812H45.9375V27.9688H49.2188V25.7812Z" fill="#1A1A1A"/>
<path d="M65.625 25.7812H51.4062V27.9688H65.625V25.7812Z" fill="#1A1A1A"/>
<path d="M54.6875 30.1562H42.6562V32.3438H54.6875V30.1562Z" fill="#1A1A1A"/>
<path d="M67.8125 30.1562H56.875V32.3438H67.8125V30.1562Z" fill="#1A1A1A"/>
<path d="M40.4688 8.28126V6.09376H37.1875C36.8974 6.09377 36.6192 6.209 36.4141 6.41412C36.209 6.61923 36.0938 6.89743 36.0938 7.18751V13.75C36.0938 14.0401 36.209 14.3183 36.4141 14.5234C36.6192 14.7285 36.8974 14.8438 37.1875 14.8438H43.75C44.0401 14.8438 44.3183 14.7285 44.5234 14.5234C44.7285 14.3183 44.8437 14.0401 44.8438 13.75V7.6406L46.7109 5.77347L45.1641 4.22656L38.6016 10.7891L40.1484 12.336L42.6562 9.8281V12.6563H38.2812V8.28126H40.4688Z" fill="#1A1A1A"/>
<path d="M49.2188 55.3125H45.9375V57.5H49.2188V55.3125Z" fill="#1A1A1A"/>
<path d="M65.625 55.3125H62.3438V57.5H65.625V55.3125Z" fill="#1A1A1A"/>
<path d="M60.1562 55.3125H51.4062V57.5H60.1562V55.3125Z" fill="#1A1A1A"/>
<path d="M54.6875 59.6875H47.0312V61.875H54.6875V59.6875Z" fill="#1A1A1A"/>
<path d="M44.8438 59.6875H42.6562V61.875H44.8438V59.6875Z" fill="#1A1A1A"/>
<path d="M67.8125 59.6875H56.875V61.875H67.8125V59.6875Z" fill="#1A1A1A"/>
<path d="M36.0938 43.2813C36.0938 43.5713 36.209 43.8495 36.4141 44.0547C36.6192 44.2598 36.8974 44.375 37.1875 44.375H43.75C44.0401 44.375 44.3183 44.2598 44.5234 44.0547C44.7285 43.8495 44.8437 43.5713 44.8438 43.2813V37.1718L46.7109 35.3047L45.1641 33.7578L38.6016 40.3203L40.1484 41.8672L42.6562 39.3593V42.1875H38.2812V37.8125H40.4688V35.625H37.1875C36.8974 35.625 36.6192 35.7402 36.4141 35.9454C36.209 36.1505 36.0938 36.4287 36.0938 36.7188V43.2813Z" fill="#1A1A1A"/>
<path d="M63.4375 36.7188H48.125C47.8349 36.7188 47.5567 36.834 47.3516 37.0391C47.1465 37.2442 47.0313 37.5224 47.0312 37.8125V49.8438C47.0313 50.1338 47.1465 50.412 47.3516 50.6171C47.5567 50.8223 47.8349 50.9375 48.125 50.9375H63.4375C63.7276 50.9375 64.0058 50.8223 64.2109 50.6171C64.416 50.412 64.5312 50.1338 64.5312 49.8438V37.8125C64.5312 37.5224 64.416 37.2442 64.2109 37.0391C64.0058 36.834 63.7276 36.7188 63.4375 36.7188ZM62.3438 38.9062V40.568L59.5716 42.7858C59.1067 43.1578 58.5314 43.3648 57.936 43.3741C57.3406 43.3834 56.7591 43.1944 56.2829 42.8371C55.509 42.2536 54.5782 41.9151 53.6104 41.8652C52.6425 41.8153 51.6819 42.0562 50.8521 42.5569L49.2188 43.5369V38.9062H62.3438ZM49.2188 48.75V46.0881L51.9775 44.4328C52.4348 44.1568 52.9642 44.0241 53.4976 44.0516C54.031 44.0791 54.5439 44.2656 54.9704 44.5872C55.8347 45.2355 56.8899 45.5782 57.9702 45.5613C59.0505 45.5445 60.0945 45.169 60.9381 44.494L62.3438 43.3694V48.75H49.2188Z" fill="#1A1A1A"/>
</svg>
