<svg width="70" height="71" viewBox="0 0 70 71" fill="none" xmlns="http://www.w3.org/2000/svg">
<path d="M48.8791 31.4396L35.6616 44.6571H30.4838V42.3991H30.4545C32.6313 40.7699 34.2096 38.3831 34.7719 35.6249H35C37.4906 35.6249 39.5161 33.5995 39.5161 31.1088C39.5161 29.973 39.0814 28.9467 38.3871 28.153V24.3347C38.3871 16.2418 31.8026 9.65735 23.7097 9.65735C15.6168 9.65735 9.03225 16.2418 9.03225 24.3347V28.153C8.3379 28.9467 7.90322 29.973 7.90322 31.1088C7.90322 33.5995 9.9287 35.6249 12.4193 35.6249H12.6474C13.2097 38.3831 14.788 40.7699 16.9648 42.3991H16.9355V44.6571H11.2903C5.06483 44.6571 0 49.7219 0 55.9474V69.4957C0 70.12 0.504677 70.6247 1.12903 70.6247H46.2903C46.9146 70.6247 47.4193 70.12 47.4193 69.4957V55.9474C47.4193 50.5642 43.6292 46.056 38.579 44.9326L50.1448 33.3669H69.9999V31.1088H49.6774C49.377 31.1088 49.0903 31.2274 48.8791 31.4396ZM17.535 46.9152L21.9292 52.1877L17.5948 54.3543L15.1143 46.9152H17.535ZM23.5064 59.3344H23.914L25.7205 68.3666H21.7L23.5064 59.3344ZM24.1409 57.0764H23.2784L22.0635 54.6456L23.7097 53.8225L25.3558 54.6456L24.1409 57.0764ZM25.4901 52.1877L29.8843 46.9152H32.305L29.8245 54.3554L25.4901 52.1877ZM35 33.3669V28.8508C36.2453 28.8508 37.258 29.8635 37.258 31.1088C37.258 32.3541 36.2453 33.3669 35 33.3669ZM10.1613 31.1088C10.1613 29.8635 11.174 28.8508 12.4193 28.8508V33.3669C11.174 33.3669 10.1613 32.3541 10.1613 31.1088ZM12.4193 26.5927C12.0276 26.5927 11.6539 26.6582 11.2903 26.753V24.3347C11.2903 17.4871 16.8621 11.9154 23.7097 11.9154C30.5572 11.9154 36.129 17.4871 36.129 24.3347V26.753C35.7654 26.6582 35.3917 26.5927 35 26.5927C35 25.9684 34.4953 25.4637 33.8709 25.4637C32.104 25.4637 30.415 24.6192 29.3548 23.2045L28 21.3981C27.5743 20.8313 26.6192 20.8313 26.1935 21.3981L24.8387 23.2056C23.7785 24.6192 22.0895 25.4637 20.3226 25.4637H13.5484C12.924 25.4637 12.4193 25.9684 12.4193 26.5927ZM14.6774 33.3669V27.7217H20.3226C22.7963 27.7217 25.1605 26.5397 26.6451 24.5605L27.0967 23.9576L27.5484 24.5593C28.805 26.2348 30.6905 27.3401 32.7419 27.6393V33.3669C32.7419 38.347 28.6898 42.3991 23.7097 42.3991C18.7295 42.3991 14.6774 38.347 14.6774 33.3669ZM23.7097 44.6571C25.3151 44.6571 26.8416 44.315 28.2258 43.7076V45.3774L23.7097 50.7968L19.1935 45.3774V43.7076C20.5777 44.315 22.1042 44.6571 23.7097 44.6571ZM2.25806 55.9474C2.25806 50.9672 6.31016 46.9152 11.2903 46.9152H12.7355L15.8651 56.3041C15.9679 56.6135 16.2016 56.8641 16.503 56.9895C16.6419 57.0482 16.7887 57.0764 16.9355 57.0764C17.1082 57.0764 17.2821 57.0369 17.4401 56.9579L20.0426 55.6561L21.3963 58.3646L19.3968 68.3666H9.03225V61.5925H6.77419V68.3666H2.25806V55.9474ZM45.1612 55.9474V68.3666H40.6451V61.5925H38.3871V68.3666H28.0226L26.0219 58.3646L27.3756 55.6561L29.978 56.9579C30.1372 57.0369 30.3111 57.0764 30.4838 57.0764C30.6306 57.0764 30.7774 57.0482 30.9163 56.9906C31.2188 56.8653 31.4526 56.6146 31.5542 56.3053L34.6838 46.9152H36.129C41.1092 46.9152 45.1612 50.9672 45.1612 55.9474Z" fill="#1A1A1A"/>
<path d="M67.7423 26.5927V10.7864C67.7423 10.162 67.2376 9.65735 66.6132 9.65735H62.0971C61.4727 9.65735 60.9681 10.162 60.9681 10.7864V26.5927H58.71V17.5605C58.71 16.9362 58.2053 16.4315 57.581 16.4315H53.0649C52.4405 16.4315 51.9358 16.9362 51.9358 17.5605V26.5927H49.6778V20.9476C49.6778 20.3232 49.1731 19.8186 48.5487 19.8186H44.0326C43.4082 19.8186 42.9036 20.3232 42.9036 20.9476V26.5927H40.6455V28.8508H70.0003V26.5927H67.7423ZM63.2261 11.9154H65.4842V26.5927H63.2261V11.9154ZM54.1939 18.6895H56.4519V26.5927H54.1939V18.6895ZM45.1616 22.0766H47.4197V26.5927H45.1616V22.0766Z" fill="#1A1A1A"/>
<path d="M51.2732 7.39915H57.58C57.8803 7.39915 58.1671 7.2806 58.3782 7.06835L60.9671 4.47949V7.39915H63.2252V1.75402C63.2252 1.12967 62.7205 0.625 62.0961 0.625H56.451V2.88305H59.3706L57.1126 5.1411H50.8058C50.5055 5.1411 50.2187 5.25965 50.0076 5.4719L43.2334 12.2461L44.8299 13.8425L51.2732 7.39915Z" fill="#1A1A1A"/>
</svg>
