<svg width="70" height="72" viewBox="0 0 70 72" fill="none" xmlns="http://www.w3.org/2000/svg">
<g opacity="0.9">
<path d="M68.1718 31.6968C69.6159 30.2649 70.1259 28.1633 69.5026 26.212C68.8795 24.2611 67.2526 22.8658 65.2569 22.5708L49.2001 20.1973C48.1527 20.0425 47.2476 19.3737 46.7791 18.4081L44.1682 13.0266C43.9185 12.5116 43.3057 12.3002 42.7993 12.5545C42.2931 12.8086 42.0853 13.432 42.3351 13.947L44.946 19.3284C45.7124 20.9078 47.1928 22.0019 48.9063 22.255L64.9629 24.6286C66.2014 24.8117 67.1718 25.6439 67.5586 26.8548C67.9453 28.0655 67.6412 29.3192 66.745 30.2079L55.1264 41.7283C53.8864 42.9578 53.3209 44.7282 53.6137 46.4641L56.3563 62.7316C56.568 63.9865 56.0897 65.1825 55.0773 65.9306C54.0646 66.679 52.7986 66.7724 51.691 66.1797L49.1047 64.7966V63.1073C49.1047 61.4117 47.7484 60.0318 46.0815 60.0318H45.4917V55.3796C45.492 54.5187 46.0507 53.1715 46.6639 52.5531C49.3912 49.8027 50.8377 47.466 50.6732 43.001C50.5451 39.5255 49.93 36.3975 49.2282 33.6622V30.8929C49.2282 28.7712 47.5313 27.0454 45.446 27.0454C44.8153 27.0454 44.2209 27.2039 43.6976 27.4827C43.4897 25.3591 41.7234 23.6951 39.5819 23.6951C38.6492 23.6951 37.7876 24.0112 37.0948 24.5434C36.4164 23.1601 35.0119 22.2073 33.3918 22.2073C31.7434 22.2073 30.3173 23.1938 29.6532 24.6167C28.9456 24.0409 28.0491 23.6951 27.0745 23.6951C24.7938 23.6951 22.9382 25.5826 22.9382 27.9027V34.404C22.7466 34.525 22.5626 34.6599 22.3891 34.8097C20.8911 36.1048 19.8157 38.5168 19.4503 40.21C19.1989 41.3751 19.0734 42.5134 19.0775 43.5931C19.0937 47.9796 21.3205 51.0536 23.4964 53.4821C23.6639 53.6688 23.7561 53.9088 23.7561 54.1577V60.0318H23.6819C22.015 60.0318 20.6587 61.4114 20.6587 63.1072V64.7966L18.0729 66.1795C16.9651 66.7722 15.6992 66.679 14.6865 65.9306C13.674 65.1823 13.1958 63.9863 13.4074 62.7314L16.1501 46.464C16.4428 44.728 15.8773 42.9577 14.6374 41.7283L3.0189 30.2079C2.12261 29.3192 1.81844 28.0655 2.2052 26.8548C2.59194 25.644 3.56223 24.8117 4.80085 24.6286L20.8574 22.255C22.5709 22.0019 24.0515 20.9076 24.8177 19.3284L31.9985 4.52774C32.5525 3.38587 33.6305 2.7044 34.8819 2.7044C36.1336 2.7044 37.2116 3.38587 37.7652 4.52719L40.2454 9.64485C40.4951 10.1598 41.1078 10.372 41.6141 10.1176C42.1203 9.86374 42.3285 9.24035 42.079 8.72535L39.5986 3.60727C38.7059 1.7677 36.8987 0.625 34.8819 0.625C32.8652 0.625 31.0582 1.7677 30.1656 3.60741L22.9848 18.4079C22.5163 19.3735 21.6112 20.0423 20.5638 20.1973L4.50719 22.5708C2.51141 22.8658 0.884538 24.261 0.261345 26.212C-0.361849 28.1633 0.148099 30.2649 1.59236 31.6968L13.211 43.2173C13.969 43.9689 14.3147 45.0513 14.1358 46.1125L11.3928 62.3801C11.0519 64.402 11.8536 66.4071 13.4852 67.613C15.1167 68.8187 17.2392 68.9748 19.0244 68.0202L20.659 67.146V68.5495C20.659 70.2451 22.0152 71.625 23.6823 71.625H28.0002C28.5647 71.625 29.0222 71.1596 29.0222 70.5852C29.0222 70.0108 28.5647 69.5456 28.0002 69.5456H23.6823C23.1424 69.5456 22.7032 69.0987 22.7032 68.5495V63.1073C22.7032 62.558 23.1424 62.1112 23.6823 62.1112H46.0816C46.6215 62.1112 47.0609 62.558 47.0609 63.1073V68.5495C47.0609 69.0987 46.6215 69.5456 46.0816 69.5456H32.7244C32.1599 69.5456 31.7022 70.0108 31.7022 70.5852C31.7022 71.1596 32.1599 71.625 32.7244 71.625H46.0816C47.7485 71.625 49.1049 70.2453 49.1049 68.5495V67.146L50.74 68.0203C51.5165 68.4355 52.3565 68.6407 53.1926 68.6407C54.2785 68.6405 55.3574 68.2944 56.279 67.6132C57.9107 66.4072 58.7125 64.4022 58.3715 62.3803L55.6284 46.1125C55.4495 45.0513 55.7952 43.9689 56.5532 43.2173L68.1718 31.6968ZM43.7182 30.7035C43.8113 29.8174 44.5505 29.1248 45.446 29.1248C46.4044 29.1248 47.1841 29.918 47.1841 30.8929V37.3847C47.1841 38.3595 46.4043 39.1528 45.446 39.1528C44.4877 39.1528 43.7079 38.3595 43.7079 37.3847L43.7182 30.7035ZM37.5281 27.5035C37.7125 26.5203 38.5627 25.7745 39.5819 25.7745C40.7356 25.7745 41.674 26.7293 41.674 27.9027L41.6637 35.4345C41.5609 36.5111 40.6668 37.3556 39.5819 37.3556C39.2044 37.3556 38.8518 37.2507 38.5461 37.0714C38.6663 36.5546 38.696 35.9979 38.6297 35.4015C38.5522 34.7047 38.116 34.1326 37.5234 33.8651C37.5246 33.823 37.5281 27.5035 37.5281 27.5035ZM31.2997 26.4147C31.2997 25.2413 32.2382 24.2865 33.3918 24.2865C34.5454 24.2865 35.4839 25.2413 35.4839 26.4147L35.4457 33.7007H31.2998L31.2997 26.4147ZM24.9824 27.9027C24.9824 26.7291 25.9208 25.7745 27.0745 25.7745C28.2281 25.7745 29.1665 26.7291 29.1665 27.9027V33.7007H25.3575C25.2319 33.7007 25.107 33.7066 24.9824 33.7169V27.9027ZM43.4477 55.3794V60.0318H25.8002C25.8002 60.0318 25.8002 54.2693 25.8002 54.1578C25.8002 53.3895 25.5188 52.6519 25.0073 52.0815C23.0935 49.9458 21.1352 47.2661 21.1218 43.5855C21.1183 42.6582 21.2277 41.6724 21.447 40.6558C21.743 39.2838 22.6378 37.3238 23.7124 36.3948C24.1715 35.9986 24.7557 35.7803 25.3577 35.7803H36.612C36.6804 36.7095 36.3744 37.3576 35.6063 37.9268C33.9233 39.1741 31.2075 38.861 29.7486 38.6929C29.5158 38.6659 29.3146 38.6428 29.1445 38.6292C28.4274 38.57 27.6184 38.7161 27.2783 39.441C27.0494 39.929 27.1087 40.4982 27.4335 40.9271C27.8154 41.4317 28.3624 41.7132 28.8022 42.1463C29.1278 42.467 29.3981 42.8526 29.6298 43.247C30.2672 44.3311 30.6207 45.6155 30.4717 46.8814C30.4045 47.4514 30.8044 47.969 31.3649 48.0373C31.9249 48.1057 32.4344 47.6988 32.5012 47.1285C32.8153 44.4611 31.5487 42.0916 30.4167 40.8541C32.1794 41.0139 34.8572 41.0545 36.8099 39.6072C37.1023 39.3905 37.3583 39.1565 37.582 38.9073C38.1751 39.2424 38.8568 39.4347 39.582 39.4347C40.4388 39.4347 41.2353 39.1684 41.8963 38.7128C42.4292 40.1817 43.8192 41.232 45.4461 41.232C46.6163 41.232 47.6639 40.6885 48.3582 39.8369C48.4922 40.8818 48.5896 41.9619 48.6308 43.0791C48.7552 46.4505 47.9593 48.319 45.2252 51.0763C44.2289 52.0809 43.448 53.9708 43.4477 55.3794Z" fill="#1A1A1A"/>
</g>
</svg>
